<svg id="icon_discussion_desktop" xmlns="http://www.w3.org/2000/svg" width="89.67" height="77.044" viewBox="0 0 89.67 77.044">
  <g id="Group_168" data-name="Group 168">
    <g id="Ellipse_32" data-name="Ellipse 32" transform="translate(30.25 8.981)">
      <circle id="Ellipse_87" data-name="Ellipse 87" cx="15.126" cy="15.126" r="15.126" fill="#dec9db"/>
      <circle id="Ellipse_88" data-name="Ellipse 88" cx="13.98" cy="13.98" r="13.98" transform="translate(1.146 1.146)" fill="none" stroke="#932784" stroke-linejoin="round" stroke-width="2"/>
    </g>
    <g id="Rectangle_184" data-name="Rectangle 184">
      <path id="Path_206" data-name="Path 206" d="M9.73,30.814l-.685-3.907-.166-.948H1.5V1.5H33.24V25.959H19.948l-.233.111Z" transform="translate(-0.354 -0.354)" fill="#dec9db"/>
      <path id="Path_207" data-name="Path 207" d="M2.292,2.292V24.459h7.2l.758,4.32,9.09-4.32h12.4V2.292H2.292M0,0H34.031V26.75H19.851L8.508,32.141l-.945-5.39H0Z" fill="#932784"/>
    </g>
    <g id="Rectangle_185" data-name="Rectangle 185" transform="translate(3.309 36.395)">
      <path id="Path_208" data-name="Path 208" d="M26.974,87.168l-5-4.106-.317-.26H5.832V49.147H49.389V82.8H32.295l-.317.26Z" transform="translate(-4.686 -48.001)" fill="#dec9db"/>
      <path id="Path_209" data-name="Path 209" d="M6.624,49.939V81.3H21.708l4.911,4.03,4.912-4.03H47.889V49.939H6.624M4.332,47.647H50.18V83.593H32.35l-5.731,4.7-5.731-4.7H4.332Z" transform="translate(-4.332 -47.647)" fill="#932784"/>
    </g>
    <path id="Vector_179" data-name="Vector 179" d="M9.9,9.9H28.808" transform="translate(-2.338 -2.338)" fill="none" stroke="#932784" stroke-linecap="round" stroke-linejoin="round" stroke-width="3"/>
    <path id="Vector_180" data-name="Vector 180" d="M9.9,17.327H28.808" transform="translate(-2.338 -4.092)" fill="none" stroke="#932784" stroke-linecap="round" stroke-linejoin="round" stroke-width="3"/>
    <path id="Vector_181" data-name="Vector 181" d="M9.9,24.752H22.19" transform="translate(-2.338 -5.845)" fill="none" stroke="#932784" stroke-linecap="round" stroke-linejoin="round" stroke-width="3"/>
    <g id="Group_255" data-name="Group 255" transform="translate(56.297 39.231)">
      <g id="Rectangle_186" data-name="Rectangle 186">
        <path id="Path_210" data-name="Path 210" d="M75.2,52.86h31.081V72.6H94.893l-.167.948L94.208,76.5l-7.981-3.793-.234-.111H75.2Z" transform="translate(-74.057 -51.714)" fill="#dec9db"/>
        <path id="Path_211" data-name="Path 211" d="M75.995,53.652V71.1h9.9l7.088,3.369.591-3.369h11.208V53.652H75.995M73.7,51.36h33.373V73.39H95.5l-.778,4.439L85.381,73.39H73.7Z" transform="translate(-73.703 -51.36)" fill="#932784"/>
      </g>
      <g id="Frame_290" data-name="Frame 290" transform="translate(5.148 9.794)">
        <circle id="Ellipse_33" data-name="Ellipse 33" cx="1.91" cy="1.91" r="1.91" fill="#f8f8f8" stroke="#932784" stroke-linejoin="round" stroke-width="2"/>
        <circle id="Ellipse_35" data-name="Ellipse 35" cx="1.91" cy="1.91" r="1.91" transform="translate(9.166)" fill="#f8f8f8" stroke="#932784" stroke-linejoin="round" stroke-width="2"/>
        <circle id="Ellipse_34" data-name="Ellipse 34" cx="1.91" cy="1.91" r="1.91" transform="translate(18.332)" fill="#f8f8f8" stroke="#932784" stroke-linejoin="round" stroke-width="2"/>
      </g>
    </g>
    <path id="_" data-name=" " d="M57.277,29.93h2.363l.882-8.272H56.4Zm1.183,7.326a1.748,1.748,0,0,0,1.891-1.891c0-1.124-.65-1.654-1.891-1.654s-1.893.531-1.893,1.654a1.748,1.748,0,0,0,1.593,1.891A1.781,1.781,0,0,0,58.46,37.256Z" transform="translate(-13.319 -5.115)" fill="#f8f8f8" stroke="#932784" stroke-linejoin="round" stroke-width="2"/>
    <path id="_2" data-name=" 2" d="M34.035,72.582H30.617V70.736a4.4,4.4,0,0,1,.272-1.785,6.888,6.888,0,0,1,1.27-1.573l2.209-2.208a2.666,2.666,0,0,0,.7-1.875,2.534,2.534,0,0,0-2.464-2.6q-.069,0-.137,0a2.752,2.752,0,0,0-1.936.726,2.841,2.841,0,0,0-.877,1.876h-3.66a6.167,6.167,0,0,1,2.088-4.2,6.72,6.72,0,0,1,4.507-1.547,6.417,6.417,0,0,1,4.386,1.483,5.089,5.089,0,0,1,1.694,4.083,4.6,4.6,0,0,1-1,3.025,12.93,12.93,0,0,1-.877,1.029q-.306.306-.817.787-.485.454-.847.817-.333.333-.545.574a2.885,2.885,0,0,0-.545,1.875ZM32.372,79.3a2.342,2.342,0,0,1-1.634-.636,2.105,2.105,0,0,1-.7-1.573,2.186,2.186,0,0,1,.665-1.6,2.287,2.287,0,0,1,1.634-.665A2.321,2.321,0,0,1,34,75.485a2.043,2.043,0,0,1,.7,1.573,2.105,2.105,0,0,1-.7,1.573A2.219,2.219,0,0,1,32.372,79.3Z" transform="translate(-6.138 -13.589)" fill="#f8f8f8" stroke="#932784" stroke-linejoin="round" stroke-width="2"/>
  </g>
</svg>
