<svg id="Component_73_13" data-name="Component 73 – 13" xmlns="http://www.w3.org/2000/svg" xmlns:xlink="http://www.w3.org/1999/xlink" width="52.438" height="64.143" viewBox="0 0 52.438 64.143">
  <defs>
    <clipPath id="clip-path">
      <rect id="Rectangle_203" data-name="Rectangle 203" width="52.438" height="64.143" transform="translate(0 0)" fill="none"/>
    </clipPath>
  </defs>
  <g id="Group_535" data-name="Group 535" clip-path="url(#clip-path)">
    <path id="Path_324" data-name="Path 324" d="M22.387,52.661V47.823S8.635,45.131,11.593,25.859C14.38,11.951,29.39,4.115,42.1,10.776c5.834,3.056,9.351,8.725,10.626,15.083C55.784,46.038,41.321,47.95,41.321,47.95v4.711Z" transform="translate(-1.574 -1.179)" fill="#dec9db"/>
    <path id="Path_325" data-name="Path 325" d="M22.387,52.172V47.822S8.635,45.131,11.593,25.859C14.38,11.95,29.39,4.115,42.1,10.775c5.834,3.057,9.351,8.726,10.626,15.084,3.055,20.179-11.408,21.963-11.408,21.963v4.351" transform="translate(-1.574 -1.179)" fill="none" stroke="#932784" stroke-linecap="round" stroke-miterlimit="10" stroke-width="2"/>
    <path id="Path_326" data-name="Path 326" d="M44.6,38.863l-4.075,4.3V53.877" transform="translate(-5.708 -5.474)" fill="none" stroke="#932784" stroke-linecap="round" stroke-miterlimit="10" stroke-width="2"/>
    <path id="Path_327" data-name="Path 327" d="M25.94,38.915l4.119,4.252V53.885" transform="translate(-3.654 -5.481)" fill="none" stroke="#932784" stroke-linecap="round" stroke-miterlimit="10" stroke-width="2"/>
    <line id="Line_35" data-name="Line 35" x2="18.513" transform="translate(21.024 54.958)" fill="none" stroke="#932784" stroke-linecap="round" stroke-miterlimit="10" stroke-width="2"/>
    <line id="Line_36" data-name="Line 36" x2="15.324" transform="translate(22.619 59.121)" fill="none" stroke="#932784" stroke-linecap="round" stroke-miterlimit="10" stroke-width="2"/>
    <line id="Line_37" data-name="Line 37" x2="9.655" transform="translate(25.453 63.284)" fill="none" stroke="#932784" stroke-linecap="round" stroke-miterlimit="10" stroke-width="2"/>
    <line id="Line_38" data-name="Line 38" x2="1.328" y2="5.58" transform="translate(11.073 0.859)" fill="none" stroke="#932784" stroke-linecap="round" stroke-miterlimit="10" stroke-width="2"/>
    <line id="Line_39" data-name="Line 39" x2="5.647" y2="0.714" transform="translate(0.859 12.562)" fill="none" stroke="#932784" stroke-linecap="round" stroke-miterlimit="10" stroke-width="2"/>
    <line id="Line_40" data-name="Line 40" x2="6.09" y2="5.78" transform="translate(3.478 4.358)" fill="none" stroke="#932784" stroke-linecap="round" stroke-miterlimit="10" stroke-width="2"/>
  </g>
</svg>
